HIERARCHY
ROOT Hips
{
	OFFSET 0.000000 0.000000 0.000000
	CHANNELS 6 Xposition Yposition Zposition Zrotation Yrotation Xrotation 
	JOINT LHipJoint
	{
		OFFSET 0.000000 0.000000 0.000000
		CHANNELS 3 Zrotation Yrotation Xrotation
		JOINT LeftUpLeg
		{
			OFFSET 1.363060 -1.794630 0.839290
			CHANNELS 3 Zrotation Yrotation Xrotation
			JOINT LeftLeg
			{
				OFFSET 2.448110 -6.726130 0.000000
				CHANNELS 3 Zrotation Yrotation Xrotation
				JOINT LeftFoot
				{
					OFFSET 2.562200 -7.039590 0.000000
					CHANNELS 3 Zrotation Yrotation Xrotation
					JOINT LeftToeBase
					{
						OFFSET 0.157640 -0.433110 2.322550
						CHANNELS 3 Zrotation Yrotation Xrotation
						End Site
						{
							OFFSET 0.000000 0.000000 0.000000
						}
					}
				}
			}
		}
	}
	JOINT RHipJoint
	{
		OFFSET 0.000000 0.000000 0.000000
		CHANNELS 3 Zrotation Yrotation Xrotation
		JOINT RightUpLeg
		{
			OFFSET -1.305520 -1.794630 0.839290
			CHANNELS 3 Zrotation Yrotation Xrotation
			JOINT RightLeg
			{
				OFFSET -2.542530 -6.985550 0.000000
				CHANNELS 3 Zrotation Yrotation Xrotation
				JOINT RightFoot
				{
					OFFSET -2.568260 -7.056230 0.000000
					CHANNELS 3 Zrotation Yrotation Xrotation
					JOINT RightToeBase
					{
						OFFSET -0.164730 -0.452590 2.363150
						CHANNELS 3 Zrotation Yrotation Xrotation
						End Site
						{
							OFFSET 0.000000 0.000000 0.000000
						}
					}
				}
			}
		}
	}
}
MOTION
Frames: 19
Frame Time: 0.008333
3.833626 20.596097 2.576095 39.609808 -88.858395 -15.327349 -11.677876 4.294955 3.163314 -3.749351 1.580347 -10.506654 0.198308 0.491519 13.882532 2.188047 7.298922 41.760288 4.564799 -0.000000 -61.621600 11.139125 -3.758042 0.860028 3.701184 -8.737542 -8.923259 0.853666 -0.867769 9.280136 -0.770456 8.604889 45.675187 7.022100 0.000000 -76.370000
3.628635 20.780590 2.562398 45.126559 -89.141536 -21.001102 -11.640899 4.254249 2.939113 -4.072247 2.514992 -11.102173 0.123416 0.531405 14.883032 2.122504 6.510396 41.211786 3.944100 -0.000000 -62.411900 11.212923 -3.681278 0.734941 3.726357 -9.256442 -9.437300 0.903130 -0.886860 9.511371 -0.733448 8.415013 44.899653 6.797900 -0.000000 -76.962600
3.426143 20.955837 2.549221 50.315688 -89.337650 -26.297088 -11.614663 4.200985 2.702862 -4.388777 3.521303 -11.765973 0.041220 0.565573 15.664270 2.061449 5.675501 40.927108 3.319500 -0.000000 -63.190000 11.284304 -3.604166 0.596263 3.786386 -9.872260 -9.964854 0.980161 -0.893349 9.477842 -0.689688 8.285991 44.201411 6.625000 0.000000 -77.383400
3.225181 21.122335 2.537187 53.327693 -89.469673 -29.352049 -11.613432 4.135822 2.470211 -4.682557 4.551508 -12.512137 -0.046431 0.593271 16.224214 2.008594 4.859007 40.843060 2.727100 -0.000000 -63.784600 11.331917 -3.527723 0.455087 3.909014 -10.520548 -10.509874 1.080500 -0.884003 9.178822 -0.640616 8.136803 43.594065 6.441001 0.000000 -77.696000
3.025263 21.280963 2.525890 54.222092 -89.538912 -30.239137 -11.623852 4.064864 2.256639 -4.986814 5.487523 -13.260648 -0.135581 0.612636 16.494000 1.970664 4.221947 40.942562 2.277301 0.000000 -64.312800 11.362700 -3.441610 0.300570 4.056846 -11.212162 -11.073179 1.199175 -0.861720 8.688296 -0.583334 7.986720 42.995846 6.253500 -0.000000 -77.738100
2.825801 21.431458 2.515767 52.194490 -89.561448 -28.150336 -11.652404 3.989305 2.070131 -5.292221 6.314411 -14.041489 -0.226833 0.625303 16.527607 1.944207 3.782702 41.103451 1.973900 -0.000000 -64.597500 11.363830 -3.347663 0.145744 4.252048 -11.884449 -11.670271 1.331269 -0.825801 8.052292 -0.518496 7.749914 42.361549 5.993401 0.000000 -77.586801
2.627434 21.574031 2.507198 47.101386 -89.537323 -22.922400 -11.707858 3.898809 1.909326 -5.591096 7.007077 -14.896845 -0.316867 0.632365 16.398724 1.927723 3.566822 41.235848 1.831500 0.000000 -64.764600 11.318356 -3.248839 0.007796 4.518248 -12.421088 -12.300811 1.468348 -0.773596 7.274023 -0.455202 7.270482 41.710671 5.549401 0.000000 -77.616699
2.429392 21.708130 2.499398 41.426573 -89.419904 -17.072248 -11.769710 3.795172 1.777987 -5.920364 7.509608 -15.756979 -0.399784 0.631900 16.096648 1.915426 3.624093 41.277497 1.887800 -0.000000 -64.749000 11.246463 -3.145982 -0.122211 4.798342 -12.899522 -12.988880 1.612656 -0.714261 6.491670 -0.387268 6.668398 40.873829 5.002499 -0.000000 -77.430700
2.231953 21.833043 2.492546 35.810932 -89.200991 -11.233479 -11.832166 3.671126 1.669371 -6.268207 7.828902 -16.653220 -0.473166 0.624936 15.699724 1.901677 3.911928 41.155497 2.110600 -0.000000 -64.504399 11.150195 -3.044073 -0.229554 5.104505 -13.255388 -13.735556 1.758676 -0.647477 5.722958 -0.322006 5.886820 39.851010 4.318900 -0.000000 -77.129600
2.035408 21.948074 2.486373 31.096115 -88.883082 -6.259462 -11.877269 3.529328 1.578016 -6.635891 7.971325 -17.583129 -0.538186 0.613121 15.256794 1.882072 4.384738 40.829702 2.464300 0.000000 -64.097400 11.047091 -2.939735 -0.313275 5.422402 -13.489792 -14.544572 1.901456 -0.575573 5.017634 -0.262322 4.967153 38.619161 3.537500 -0.000000 -76.766600
1.839824 22.052377 2.480825 27.342723 -88.488362 -2.206894 -11.897812 3.372792 1.502992 -7.017078 7.941097 -18.556854 -0.596679 0.597279 14.802424 1.857180 4.998348 40.310792 2.913300 0.000001 -63.727400 10.944022 -2.829419 -0.367782 5.747043 -13.570524 -15.410012 2.034306 -0.497248 4.375850 -0.214231 3.918020 37.228253 2.678799 -0.000000 -76.468400
1.645398 22.145400 2.475303 24.771685 -88.041478 0.677257 -11.887230 3.212729 1.435896 -7.423120 7.786821 -19.556560 -0.657029 0.581292 14.375924 1.822015 5.651271 39.572178 3.378300 -0.000000 -63.012100 10.853069 -2.704957 -0.409014 6.045368 -13.569259 -16.331843 2.156946 -0.417763 3.862372 -0.172621 2.890177 35.662566 1.856300 -0.000000 -75.973600
1.452015 22.226663 2.470016 22.888814 -87.567399 2.902830 -11.853978 3.046914 1.381735 -7.841343 7.501676 -20.596912 -0.717023 0.562867 13.976796 1.784028 6.333833 38.705595 3.851400 -0.000000 -62.537400 10.766443 -2.568126 -0.427935 6.323069 -13.440775 -17.302600 2.264559 -0.334485 3.427783 -0.145605 1.858175 34.053992 1.064001 0.000000 -75.605200
1.260052 22.295430 2.464223 21.786093 -87.085438 4.341306 -11.798659 2.884312 1.326180 -8.286353 7.158884 -21.648398 -0.785194 0.546173 13.633764 1.737494 6.941296 37.693178 4.253900 -0.000000 -61.895300 10.691795 -2.414172 -0.448234 6.549469 -13.288798 -18.313756 2.360934 -0.255989 3.127033 -0.123990 0.983597 32.412224 0.410000 0.000000 -75.158400
1.069244 22.351958 2.458237 21.053927 -86.610988 5.422804 -11.730115 2.721021 1.276254 -8.743039 6.748410 -22.727072 -0.856881 0.528106 13.328290 1.690399 7.494144 36.638412 4.605600 -0.000000 -61.581701 10.621487 -2.248969 -0.460674 6.740612 -13.079942 -19.367269 2.444806 -0.181133 2.905305 -0.112187 0.225291 30.867779 -0.135000 -0.000001 -74.865700
0.879718 22.396097 2.451493 20.746693 -86.157242 6.064611 -11.650157 2.563275 1.218451 -9.222078 6.334952 -23.800717 -0.938602 0.511804 13.066546 1.637275 7.921408 35.527599 4.856800 0.000000 -61.062000 10.560737 -2.071474 -0.485058 6.881696 -12.897062 -20.449035 2.521159 -0.117771 2.790533 -0.099689 -0.313209 29.438644 -0.514500 -0.000001 -74.554800
0.691153 22.428145 2.444514 20.552120 -85.732193 6.606522 -11.565097 2.406143 1.163358 -9.703519 5.896122 -24.896933 -1.024015 0.493913 12.824577 1.585749 8.274348 34.446417 5.051400 0.000000 -60.884200 10.502231 -1.888949 -0.508538 7.000699 -12.698504 -21.575509 2.590359 -0.063898 2.733559 -0.089282 -0.704879 28.216869 -0.784600 -0.000001 -74.440800
0.503903 22.448685 2.436969 20.521732 -85.343668 6.978003 -11.475529 2.252449 1.102513 -10.192603 5.466853 -25.990733 -1.116014 0.475808 12.592885 1.533244 8.532797 33.392445 5.178000 -0.000000 -60.873900 10.448777 -1.700780 -0.543241 7.093226 -12.529067 -22.737882 2.655739 -0.024368 2.747159 -0.073714 -0.910616 27.203659 -0.931400 -0.000001 -74.472200
0.317753 22.458119 2.428878 20.595243 -84.995847 7.245875 -11.383387 2.102028 1.036151 -10.684933 5.054789 -27.082947 -1.215142 0.456809 12.356216 1.478614 8.696095 32.368923 5.239600 0.000000 -60.714000 10.398652 -1.509425 -0.587415 7.168855 -12.385703 -23.941070 2.719393 0.000478 2.821978 -0.050487 -0.948277 26.399369 -0.973900 0.000000 -74.590000
